<mxfile host="65bd71144e">
    <diagram id="Sojx_-EjJHPfq3aDwbJ8" name="第 1 页">
        <mxGraphModel dx="928" dy="598" grid="1" gridSize="10" guides="1" tooltips="1" connect="1" arrows="1" fold="1" page="1" pageScale="1" pageWidth="827" pageHeight="1169" math="0" shadow="0">
            <root>
                <mxCell id="0"/>
                <mxCell id="1" parent="0"/>
                <mxCell id="9" value="" style="ellipse;whiteSpace=wrap;html=1;" parent="1" vertex="1">
                    <mxGeometry x="140" y="10" width="655.93" height="422" as="geometry"/>
                </mxCell>
                <mxCell id="23" value="" style="ellipse;whiteSpace=wrap;html=1;fillColor=#dae8fc;strokeColor=#6c8ebf;" parent="1" vertex="1">
                    <mxGeometry x="140" y="56" width="540" height="334" as="geometry"/>
                </mxCell>
                <mxCell id="18" value="" style="ellipse;whiteSpace=wrap;html=1;fillColor=#f8cecc;strokeColor=#b85450;" parent="1" vertex="1">
                    <mxGeometry x="150" y="87" width="340" height="260" as="geometry"/>
                </mxCell>
                <mxCell id="2" value="" style="shape=image;verticalLabelPosition=bottom;labelBackgroundColor=default;verticalAlign=top;aspect=fixed;imageAspect=0;image=https://www.shutterstock.com/image-vector/castle-logo-template-icon-symbol-260nw-1370055596.jpg;clipPath=inset(18.6% 20.67% 25.19% 21%);fillColor=#f8cecc;strokeColor=#b85450;imageBackground=#F8CECC;" parent="1" vertex="1">
                    <mxGeometry x="291.63" y="193.5" width="56.73" height="47" as="geometry"/>
                </mxCell>
                <mxCell id="19" value="&lt;span style=&quot;color: rgb(0, 0, 0);&quot;&gt;城堡&lt;/span&gt;：&lt;div style=&quot;&quot;&gt;&lt;font color=&quot;#000000&quot;&gt;底层认知&lt;/font&gt;&lt;/div&gt;" style="text;html=1;align=left;verticalAlign=middle;whiteSpace=wrap;rounded=0;fillColor=default;" parent="1" vertex="1">
                    <mxGeometry x="190" y="137" width="58" height="30" as="geometry"/>
                </mxCell>
                <mxCell id="20" value="国民军：&lt;div&gt;&lt;span style=&quot;color: rgb(0, 0, 0);&quot;&gt;核心竞争力&lt;/span&gt;&lt;/div&gt;" style="text;html=1;align=left;verticalAlign=middle;whiteSpace=wrap;rounded=0;fillColor=default;" parent="1" vertex="1">
                    <mxGeometry x="190" y="260" width="63" height="30" as="geometry"/>
                </mxCell>
                <mxCell id="21" value="世袭领土：认知深耕区" style="text;html=1;align=left;verticalAlign=middle;whiteSpace=wrap;rounded=0;" parent="1" vertex="1">
                    <mxGeometry x="414" y="196.5" width="73" height="30" as="geometry"/>
                </mxCell>
                <mxCell id="22" value="&lt;span style=&quot;color: rgb(0, 0, 0);&quot;&gt;雇佣军&lt;/span&gt;：&lt;span style=&quot;color: rgb(0, 0, 0);&quot;&gt;AI 辅助&lt;/span&gt;" style="text;html=1;align=left;verticalAlign=middle;whiteSpace=wrap;rounded=0;" parent="1" vertex="1">
                    <mxGeometry x="470" y="292.5" width="60" height="30" as="geometry"/>
                </mxCell>
                <mxCell id="24" value="新领土：&lt;div&gt;认知探索区&lt;/div&gt;" style="text;html=1;align=left;verticalAlign=middle;whiteSpace=wrap;rounded=0;" parent="1" vertex="1">
                    <mxGeometry x="583" y="188" width="70" height="47" as="geometry"/>
                </mxCell>
                <mxCell id="25" value="失地：&lt;div&gt;认知污染区&lt;/div&gt;" style="text;html=1;align=left;verticalAlign=middle;whiteSpace=wrap;rounded=0;" parent="1" vertex="1">
                    <mxGeometry x="722" y="188" width="70" height="47" as="geometry"/>
                </mxCell>
                <mxCell id="26" value="" style="endArrow=classic;html=1;exitX=1;exitY=0.5;exitDx=0;exitDy=0;entryX=0;entryY=0.5;entryDx=0;entryDy=0;" parent="1" source="21" target="24" edge="1">
                    <mxGeometry width="50" height="50" relative="1" as="geometry">
                        <mxPoint x="496.25" y="207.894" as="sourcePoint"/>
                        <mxPoint x="580" y="208" as="targetPoint"/>
                    </mxGeometry>
                </mxCell>
                <mxCell id="28" value="&lt;div&gt;认知殖民&lt;/div&gt;" style="text;html=1;align=left;verticalAlign=middle;whiteSpace=wrap;rounded=0;" parent="1" vertex="1">
                    <mxGeometry x="510" y="179" width="52" height="47" as="geometry"/>
                </mxCell>
                <mxCell id="29" value="" style="endArrow=none;html=1;exitX=1;exitY=0.5;exitDx=0;exitDy=0;startArrow=classic;startFill=1;endFill=0;entryX=0;entryY=0.5;entryDx=0;entryDy=0;dashed=1;dashPattern=1 1;" parent="1" source="24" target="25" edge="1">
                    <mxGeometry width="50" height="50" relative="1" as="geometry">
                        <mxPoint x="666.25" y="208.894" as="sourcePoint"/>
                        <mxPoint x="700" y="209" as="targetPoint"/>
                    </mxGeometry>
                </mxCell>
                <mxCell id="31" value="" style="shape=image;verticalLabelPosition=bottom;labelBackgroundColor=default;verticalAlign=top;aspect=fixed;imageAspect=0;image=https://img.freepik.com/premium-vector/conference-speech-icon-outline-conference-speech-vector-icon-web-design-isolated-white-background_96318-40717.jpg;" vertex="1" parent="1">
                    <mxGeometry x="363.75" y="129.5" width="45" height="45" as="geometry"/>
                </mxCell>
                <mxCell id="33" value="" style="shape=image;verticalLabelPosition=bottom;labelBackgroundColor=default;verticalAlign=top;aspect=fixed;imageAspect=0;image=https://static.thenounproject.com/png/194488-200.png;" vertex="1" parent="1">
                    <mxGeometry x="239.99999999999997" y="129.5" width="45" height="45" as="geometry"/>
                </mxCell>
                <mxCell id="35" value="&lt;div style=&quot;&quot;&gt;&lt;font color=&quot;#000000&quot;&gt;底层认知&lt;/font&gt;&lt;/div&gt;" style="text;html=1;align=left;verticalAlign=middle;whiteSpace=wrap;rounded=0;fillColor=default;" vertex="1" parent="1">
                    <mxGeometry x="190" y="226.5" width="58" height="21" as="geometry"/>
                </mxCell>
                <mxCell id="36" value="&lt;div&gt;&lt;span style=&quot;color: rgb(0, 0, 0);&quot;&gt;核心技能&lt;/span&gt;&lt;/div&gt;" style="text;html=1;align=left;verticalAlign=middle;whiteSpace=wrap;rounded=0;fillColor=default;" vertex="1" parent="1">
                    <mxGeometry x="190" y="196" width="57" height="24" as="geometry"/>
                </mxCell>
                <mxCell id="38" value="" style="shape=image;verticalLabelPosition=bottom;labelBackgroundColor=default;verticalAlign=top;aspect=fixed;imageAspect=0;image=https://cdn4.iconfinder.com/data/icons/army/500/Army_attack_man_soldier_helmet_soldiers__men_command_friends_group_line_1-512.png;" vertex="1" parent="1">
                    <mxGeometry x="253" y="260" width="32.5" height="32.5" as="geometry"/>
                </mxCell>
                <mxCell id="39" value="" style="shape=image;verticalLabelPosition=bottom;labelBackgroundColor=default;verticalAlign=top;aspect=fixed;imageAspect=0;image=https://cdn4.iconfinder.com/data/icons/army/500/Army_attack_man_soldier_helmet_soldiers__men_command_friends_group_line_1-512.png;" vertex="1" parent="1">
                    <mxGeometry x="370" y="258.75" width="32.5" height="32.5" as="geometry"/>
                </mxCell>
                <mxCell id="40" value="" style="shape=image;verticalLabelPosition=bottom;labelBackgroundColor=default;verticalAlign=top;aspect=fixed;imageAspect=0;image=https://cdn4.iconfinder.com/data/icons/army/500/Army_attack_man_soldier_helmet_soldiers__men_command_friends_group_line_1-512.png;" vertex="1" parent="1">
                    <mxGeometry x="303.75" y="134.5" width="32.5" height="32.5" as="geometry"/>
                </mxCell>
            </root>
        </mxGraphModel>
    </diagram>
</mxfile>